# xmcd
#
# Track frame offsets: 
#        150
#        16640
#        33131
#        53066
#        73564
#        92463
#        110923
#        129109
#        144449
#        161642
#        176521
#
# Disc length: 2627 seconds
#
# Revision: 0
# Processed by: cddbd v1.5.2PL0 Copyright (c) Steve Scherf et al.
# Submitted via: ExactAudioCopy v0.95b4
#
DISCID=810a410b
DTITLE=Shari Williams - Sunny
DYEAR=2008
DGENRE=Country
TTITLE0=Out Of Here
TTITLE1=Sunny
TTITLE2=Last Lullaby
TTITLE3=You'll Hurt Me
TTITLE4=Alabama Girl
TTITLE5=Dusty Boots
TTITLE6=Crazy About You
TTITLE7=I Wanna Be Country
TTITLE8=My Home
TTITLE9=Soul Mate
TTITLE10=Dusty Boots (Live)
EXTD=
EXTT0=
EXTT1=
EXTT2=
EXTT3=
EXTT4=
EXTT5=
EXTT6=
EXTT7=
EXTT8=
EXTT9=
EXTT10=
PLAYORDER=
